<svg xmlns="http://www.w3.org/2000/svg" width="25" height="25" viewBox="0 0 25 25"><defs><clipPath id="i68ba"><path fill="#fff" d="M0 25V0h25v25zm1.5-12.75c0 6.213 5.037 11.25 11.25 11.25S24 18.463 24 12.25 18.963 1 12.75 1 1.5 6.036 1.5 12.25z"/></clipPath></defs><g><g><g><path fill="#fff" d="M12.75 1C18.963 1 24 6.036 24 12.25S18.963 23.5 12.75 23.5 1.5 18.463 1.5 12.25 6.537 1 12.75 1z"/><path fill="none" stroke="#f68038" stroke-linecap="round" stroke-linejoin="round" stroke-miterlimit="20" stroke-width="2" d="M12.75 1C18.963 1 24 6.036 24 12.25S18.963 23.5 12.75 23.5 1.5 18.463 1.5 12.25 6.537 1 12.75 1z" clip-path="url(&quot;#i68ba&quot;)"/></g><g><path fill="#f68038" d="M12.75 5a7.25 7.25 0 1 1 0 14.5 7.25 7.25 0 0 1 0-14.5z"/></g></g></g></svg>